<svg data-v-fde0c5aa="" xmlns="http://www.w3.org/2000/svg" viewBox="0 0 300 300" class="iconAbove"><!----><defs data-v-fde0c5aa=""><linearGradient data-v-fde0c5aa="" gradientTransform="rotate(25)" id="fbaafc85-c620-4380-baa3-7e0ca7cbca9f" x1="0%" y1="0%" x2="100%" y2="0%"><stop data-v-fde0c5aa="" offset="0%" stop-color="#30092A" stop-opacity="1"></stop><stop data-v-fde0c5aa="" offset="100%" stop-color="#CB3C61" stop-opacity="1"></stop></linearGradient></defs><rect data-v-fde0c5aa="" fill="url(#fbaafc85-c620-4380-baa3-7e0ca7cbca9f)" x="0" y="0" width="300px" height="300px" class="logo-background-square"></rect><defs data-v-fde0c5aa=""><!----></defs><g data-v-fde0c5aa="" id="a1c96f08-c6fc-47f5-bed7-577fa9bf5630" fill="#ffffff" transform="matrix(3.0387606620788574,0,0,3.0387606620788574,17.29913327251868,163.90760004724166)"><path d="M1.09 3.58C0.92 3.65 0.84 3.86 0.92 4.03L4.70 13.02C4.72 13.09 4.75 13.15 4.79 13.19L4.80 13.20L4.83 13.23C4.89 13.27 4.96 13.30 5.04 13.30C5.11 13.30 5.18 13.29 5.24 13.24C5.24 13.24 5.25 13.23 5.26 13.23C5.29 13.20 5.32 13.17 5.33 13.13C5.35 13.12 5.36 13.09 5.36 13.06L7.87 7.14L10.36 13.06C10.37 13.08 10.37 13.09 10.37 13.10C10.39 13.13 10.42 13.17 10.43 13.19C10.44 13.22 10.47 13.23 10.49 13.24C10.54 13.29 10.60 13.30 10.65 13.30L10.70 13.30L10.72 13.30C10.82 13.29 10.95 13.20 11.00 13.08L14.81 4.03C14.90 3.86 14.81 3.65 14.64 3.58C14.45 3.50 14.27 3.58 14.18 3.75L10.68 12.08L8.20 6.19C8.13 6.06 8.01 5.98 7.85 5.98C7.73 5.98 7.60 6.06 7.53 6.19L5.04 12.08L1.54 3.75C1.47 3.58 1.26 3.50 1.09 3.58ZM21.17 6.44C20.99 6.44 20.83 6.58 20.83 6.78L20.83 7.78C20.24 6.97 19.31 6.44 18.26 6.44C16.45 6.44 15.01 7.99 15.01 9.87C15.01 11.75 16.45 13.30 18.26 13.30C19.31 13.30 20.24 12.75 20.83 11.94L20.83 12.96C20.83 13.15 20.99 13.30 21.17 13.30C21.35 13.30 21.50 13.15 21.50 12.96L21.50 6.78C21.50 6.58 21.35 6.44 21.17 6.44ZM18.26 12.63C16.86 12.63 15.68 11.41 15.68 9.87C15.68 8.33 16.86 7.10 18.26 7.10C19.67 7.10 20.83 8.33 20.83 9.87C20.83 11.41 19.67 12.63 18.26 12.63ZM26.40 13.27C26.42 13.29 26.42 13.29 26.43 13.29C26.47 13.30 26.50 13.30 26.54 13.30C26.61 13.30 26.71 13.27 26.77 13.20C26.81 13.15 26.84 13.09 26.85 13.03L29.41 6.96C29.48 6.79 29.41 6.59 29.25 6.52C29.08 6.45 28.87 6.54 28.81 6.71L26.53 12.11L24.25 6.71C24.19 6.54 23.98 6.45 23.81 6.52C23.66 6.59 23.58 6.79 23.65 6.96L26.22 13.09C26.25 13.16 26.29 13.20 26.33 13.24C26.36 13.26 26.38 13.27 26.40 13.27ZM34.71 13.30C35.87 13.30 36.89 12.68 37.48 11.75C37.58 11.58 37.52 11.38 37.37 11.27C37.23 11.19 37.02 11.21 36.92 11.38C36.46 12.15 35.62 12.63 34.71 12.63C33.29 12.63 32.12 11.49 32.05 10.00L37.67 10.00C37.86 10.00 38.01 9.87 38.01 9.69L38.01 9.65L38.01 9.63C37.87 7.84 36.47 6.44 34.71 6.44C32.86 6.44 31.37 7.98 31.37 9.88C31.37 11.76 32.86 13.30 34.71 13.30ZM34.71 7.11C35.97 7.11 37.06 8.05 37.28 9.34L32.09 9.34C32.34 8.04 33.42 7.11 34.71 7.11ZM40.10 12.96C40.10 13.16 40.25 13.30 40.45 13.30C40.61 13.30 40.77 13.16 40.77 12.96L40.77 9.95C40.77 9.93 40.77 9.90 40.80 9.84C40.89 9.56 41.16 8.86 41.62 8.25C42.10 7.63 42.71 7.13 43.61 7.13C43.79 7.13 43.95 6.97 43.95 6.79C43.95 6.59 43.79 6.45 43.61 6.45C42.29 6.45 41.38 7.32 40.87 8.13C40.82 8.19 40.80 8.25 40.77 8.30L40.77 6.79C40.77 6.59 40.61 6.45 40.45 6.45C40.25 6.45 40.10 6.59 40.10 6.79L40.10 12.96ZM50.19 11.90L50.19 11.90C51.00 12.54 52.30 13.30 53.80 13.31L53.80 13.31C54.78 13.31 55.66 13.02 56.32 12.54L56.32 12.54C56.98 12.07 57.43 11.37 57.43 10.58L57.43 10.58C57.43 9.80 56.99 9.16 56.35 8.74L56.35 8.74C55.71 8.30 54.84 8.02 53.86 7.84L53.83 7.84L53.83 7.84C52.95 7.67 52.22 7.43 51.73 7.10L51.73 7.10C51.24 6.76 51.02 6.40 51.00 5.91L51.00 5.91C51.00 5.40 51.28 4.93 51.77 4.56L51.77 4.56C52.26 4.21 52.98 3.98 53.77 3.98L53.77 3.98C54.85 3.98 55.69 4.51 56.46 5.01L56.46 5.01C56.60 5.11 56.80 5.07 56.88 4.93L56.88 4.93C56.98 4.77 56.94 4.59 56.80 4.49L56.80 4.49C56.03 3.99 55.06 3.36 53.77 3.36L53.77 3.36C52.85 3.36 52.02 3.63 51.41 4.07L51.41 4.07C50.79 4.52 50.39 5.17 50.39 5.91L50.39 5.91C50.39 6.64 50.79 7.22 51.39 7.62L51.39 7.62C52.00 8.02 52.79 8.27 53.70 8.44L53.73 8.44L53.73 8.44C54.68 8.62 55.47 8.89 56 9.24L56 9.24C56.53 9.60 56.80 10.02 56.80 10.58L56.80 10.58C56.80 11.13 56.50 11.65 55.96 12.04L55.96 12.04C55.43 12.43 54.66 12.68 53.80 12.68L53.80 12.68C52.53 12.70 51.31 12.01 50.58 11.42L50.58 11.42C50.46 11.31 50.26 11.33 50.15 11.47L50.15 11.47C50.05 11.59 50.06 11.79 50.19 11.90ZM65.20 6.44C65.02 6.44 64.86 6.58 64.86 6.78L64.86 7.78C64.27 6.97 63.34 6.44 62.29 6.44C60.48 6.44 59.04 7.99 59.04 9.87C59.04 11.75 60.48 13.30 62.29 13.30C63.34 13.30 64.27 12.75 64.86 11.94L64.86 12.96C64.86 13.15 65.02 13.30 65.20 13.30C65.38 13.30 65.53 13.15 65.53 12.96L65.53 6.78C65.53 6.58 65.38 6.44 65.20 6.44ZM62.29 12.63C60.89 12.63 59.71 11.41 59.71 9.87C59.71 8.33 60.89 7.10 62.29 7.10C63.70 7.10 64.86 8.33 64.86 9.87C64.86 11.41 63.70 12.63 62.29 12.63ZM68.74 12.96L68.74 12.96C68.74 13.15 68.89 13.30 69.08 13.30L69.08 13.30C69.27 13.30 69.43 13.15 69.43 12.96L69.43 3.84L69.43 3.84C69.43 3.65 69.27 3.50 69.08 3.50L69.08 3.50C68.89 3.50 68.74 3.65 68.74 3.84L68.74 12.96ZM71.81 9.87L71.81 9.87C71.81 11.73 73.26 13.30 75.05 13.30L75.05 13.30C76.86 13.30 78.30 11.73 78.30 9.87L78.30 9.87C78.30 8.01 76.86 6.44 75.05 6.44L75.05 6.44C73.26 6.44 71.81 8.01 71.81 9.87ZM72.48 9.87L72.48 9.87C72.48 8.34 73.65 7.10 75.05 7.10L75.05 7.10C76.45 7.10 77.63 8.34 77.63 9.87L77.63 9.87C77.63 11.40 76.45 12.63 75.05 12.63L75.05 12.63C73.65 12.63 72.48 11.40 72.48 9.87ZM85.78 12.96C85.78 13.16 85.93 13.30 86.11 13.30C86.30 13.30 86.45 13.16 86.45 12.96L86.45 9.24C86.45 7.71 85.20 6.45 83.66 6.45C82.81 6.45 82.04 6.85 81.54 7.45L81.54 6.79C81.54 6.61 81.40 6.45 81.21 6.45C81.02 6.45 80.88 6.61 80.88 6.79L80.88 9.13L80.88 9.24L80.88 12.96L80.88 13.05C80.88 13.05 80.89 13.06 80.89 13.08C80.89 13.09 80.89 13.10 80.91 13.12C80.95 13.20 81.03 13.27 81.13 13.30L81.21 13.30C81.31 13.30 81.41 13.26 81.47 13.17C81.51 13.13 81.52 13.08 81.54 13.02L81.54 12.96L81.54 9.24C81.56 8.08 82.50 7.13 83.66 7.13C84.84 7.13 85.78 8.08 85.78 9.24L85.78 12.96Z"></path></g><defs data-v-fde0c5aa=""><!----></defs><g data-v-fde0c5aa="" id="403b65cd-7a72-4d18-9b49-094a7697c634" stroke="none" fill="#ffffff" transform="matrix(0.6748059988021851,0,0,0.6748059988021851,115.32036476468924,92.35681925844541)"><path d="M63.163 5.283c1.626.171 3.202.587 4.796.926 1.42.301 2.788.76 4.155 1.215 1.193.397 2.358.883 3.509 1.4.858.386 1.701.802 2.525 1.244.855.459 1.704.939 2.525 1.467.79.509 1.585 1.01 2.345 1.56a42.842 42.842 0 0 1 3.364 2.709c.077.069.211.106.19.253-.477-.14-.867-.448-1.245-.74-.585-.451-1.243-.761-1.875-1.122-.934-.534-1.897-1.026-2.906-1.388-1.054-.378-2.091-.806-3.19-1.068-1.101-.263-2.195-.563-3.296-.829l-.732-.245c-.104-.086-.218-.146-.359-.135-.007-.016-.019-.02-.035-.012-.395-.157-.785-.328-1.209-.397-.011-.016-.025-.021-.043-.013a.736.736 0 0 0-.373-.115l-.13-.015-.559-.135c-.012-.017-.027-.021-.046-.013-.402-.236-.871-.244-1.306-.368-.775-.222-1.561-.426-2.378-.44l-.03-.013-.033.004c-.052-.021-.103-.053-.157-.061-.984-.159-1.965-.339-2.953-.467-1.033-.133-2.068-.261-3.112-.277-2.304-.151-4.608-.123-6.912.013-.021.001-.041.018-.062.027-.324-.003-.648-.009-.964.076l-.136.007c-.334-.033-.662.037-.989.075-.758.089-1.523.141-2.267.327l-.03-.004-.027.014a2.215 2.215 0 0 0-.769.129l-.269.032c-.039-.014-.066-.006-.08.034l.005-.002c-.484.068-.976.084-1.45.216l-.033-.002-.029.017c-.191.019-.383.033-.559.123l-.131.018c-.322.08-.662.096-.961.263-.819.2-1.655.347-2.453.611-1.457.482-2.927.925-4.355 1.505-.966.392-1.925.806-2.869 1.24-.904.415-1.792.875-2.668 1.356a47.99 47.99 0 0 0-3.961 2.41 47.985 47.985 0 0 0-3.233 2.387c-.485.394-.963.809-1.454 1.199-.485.385-.937.831-1.399 1.253-.845.772-1.644 1.591-2.434 2.413-.406.422-.807.869-1.188 1.325-.439.525-.889 1.046-1.325 1.574-.627.759-1.195 1.566-1.775 2.363a42.278 42.278 0 0 0-2.137 3.238 51.148 51.148 0 0 0-2.192 4.086c-.446.931-.794 1.905-1.272 2.816-.299.57-.339 1.226-.709 1.805a48.364 48.364 0 0 1 1.019-3.628 53.637 53.637 0 0 1 1.568-4.113c.54-1.279 1.134-2.538 1.828-3.74.446-.772.878-1.553 1.354-2.31a57.9 57.9 0 0 1 1.508-2.299 43.8 43.8 0 0 1 3.713-4.638 71.07 71.07 0 0 1 2.152-2.207c.913-.91 1.883-1.752 2.866-2.575.486-.407.992-.807 1.504-1.191.714-.537 1.453-1.04 2.174-1.566.683-.498 1.442-.889 2.154-1.348a24.503 24.503 0 0 1 2.581-1.436c.779-.378 1.525-.832 2.36-1.113.625-.21 1.203-.566 1.825-.804 1.822-.698 3.671-1.323 5.561-1.808a46.95 46.95 0 0 1 8.356-1.372c.347-.025.706.005 1.041-.129h6.214c.477.119.963.129 1.451.134.022.01.044.012.067.005.78.115 1.56.225 2.349.269z"></path><path d="M45.212 30.841c-1.029.819-1.928 1.766-2.744 2.793a16.098 16.098 0 0 0-2.288 3.895c-.788 1.913-1.05 3.903-1 5.962.04 1.673.383 3.274.843 4.872a27.149 27.149 0 0 0 1.406 3.769c.384.842.807 1.669 1.27 2.477.451.786.937 1.548 1.446 2.291.9 1.312 1.904 2.55 2.999 3.708a36.651 36.651 0 0 0 3.601 3.345c.562.453 1.13.899 1.714 1.318a39.053 39.053 0 0 0 2.781 1.828c1.191.709 2.42 1.36 3.686 1.926 1.718.769 3.489 1.403 5.289 1.955.24.073.496.095.744.141 2.978.857 6.027 1.112 9.11 1.062 1.473-.024 2.943.003 4.384.352.41.099.815.244 1.201.415.352.156.672.401.701.825.029.419-.246.691-.561.93-.794.603-1.708.903-2.663 1.144-2.322.586-4.677.709-7.054.584-1.794-.094-3.561-.382-5.331-.679-1.32-.222-2.59-.61-3.886-.913-1.325-.31-2.571-.847-3.874-1.213-.103-.029-.199-.117-.319-.052.019-.125-.059-.13-.155-.13.039.073.088.114.159.127.015.214.225.241.341.358.494.498 1.066.906 1.633 1.306.718.507 1.435 1.024 2.231 1.412.236.115.446.282.678.408a32.567 32.567 0 0 0 5.038 2.194c1.979.673 4.013 1.147 6.075 1.509 3.213.564 6.449.582 9.696.512 2.783-.06 5.514-.496 8.247-.958.794-.134 1.574-.324 2.359-.491.086-.018.169-.06.297.005-.357.154-.676.343-1.021.43-.838.212-1.61.618-2.445.82-1.448.35-2.843.884-4.318 1.154-1.16.212-2.296.578-3.466.749-2.455.358-4.906.756-7.39.892-1.944.106-3.887.104-5.831.059-2.442-.056-4.853-.401-7.263-.782-1.388-.22-2.737-.591-4.106-.883-1.331-.284-2.603-.745-3.887-1.162-1.382-.448-2.726-1.014-4.057-1.609a63.6 63.6 0 0 1-2.63-1.268c-.983-.496-1.932-1.06-2.917-1.555-1.028-.516-1.959-1.173-2.878-1.863a21.575 21.575 0 0 1-1.619-1.322 34.972 34.972 0 0 1-2.161-2.145 45.982 45.982 0 0 1-1.446-1.65 33.481 33.481 0 0 1-1.932-2.539c-.284-.415-.576-.825-.856-1.243-.335-.714-.867-1.31-1.21-2.02v-.003c-.033-.177-.171-.283-.28-.41v-.003l-.676-1.289c.151.637.203 1.295.511 1.879.383 1.103.762 2.205 1.215 3.286.368.879.844 1.702 1.198 2.584.106.263.259.509.404.755.576.976 1.119 1.975 1.748 2.916a43.49 43.49 0 0 0 2.255 3.113c.377.468.774.93 1.141 1.41.341.446.744.863 1.142 1.273.517.534.99 1.114 1.537 1.613.421.385.789.825 1.238 1.179.503.395.911.9 1.445 1.26.174.258.398.457.693.567.689.72 1.512 1.277 2.299 1.876.591.45 1.18.907 1.798 1.319.762.508 1.528 1.011 2.292 1.515.824.543 1.677 1.037 2.523 1.539a46.452 46.452 0 0 0 3.506 1.881c1.051.506 2.096 1.032 3.189 1.448.148.056.269.155.397.25.292.217.688.187 1.018.338.206.094.429.148.706.24-.173.103-.284.049-.396.027-1.5-.292-2.962-.722-4.429-1.144a59.468 59.468 0 0 1-3.91-1.299 55.082 55.082 0 0 1-3.446-1.378 79.046 79.046 0 0 1-2.774-1.276c-.924-.454-1.874-.867-2.74-1.437-.151-.1-.304-.212-.499-.218l-.138-.054.003.004-.071-.074.003.002c-.559-.408-1.176-.724-1.761-1.089-1.013-.631-2.005-1.297-3.005-1.949l.002.002c-.027-.068-.085-.095-.149-.114-.665-.488-1.343-.96-1.992-1.469-.62-.486-1.21-1.011-1.815-1.516-1.783-1.49-3.413-3.137-4.947-4.877-.46-.521-.885-1.079-1.33-1.614-.823-.987-1.548-2.044-2.258-3.106a29.223 29.223 0 0 1-1.113-1.774c-.545-.956-1.099-1.911-1.562-2.904-.459-.984-.918-1.971-1.323-2.984-.584-1.462-1.026-2.967-1.535-4.452-.069-.201-.101-.414-.163-.673-.499.703-.67 1.456-.739 2.24-.161 1.834.195 3.611.568 5.392.342 1.632.854 3.212 1.378 4.787.431 1.293.964 2.552 1.429 3.834.222.614.383 1.249.505 1.893.025.132.081.309-.067.374-.159.07-.265-.084-.36-.201-.792-.974-1.371-2.078-1.977-3.17-.915-1.648-1.693-3.362-2.462-5.077-.664-1.482-1.201-3.021-1.794-4.535.009-.041-.009-.063-.049-.07l-.002-.002c-.092-.705-.375-1.349-.633-2.001l-.089-.294-.035-.118c-.035-.317-.175-.602-.266-.902l-.014-.134c-.016-.101-.024-.203-.05-.301-.433-1.624-.829-3.255-.863-4.949v-1.18c-.035.238-.146.463-.109.704-.199 1.459-.34 2.923-.369 4.397-.067.117-.047.246-.048.37-.016 1.145-.053 2.29-.033 3.434.019 1.041.068 2.083.23 3.115.042.933.269 1.841.385 2.764.111.884.428 1.711.685 2.557.285.937.772 1.79 1.06 2.722.109.353.162.716.119 1.088-.031.272-.187.325-.413.221a2.16 2.16 0 0 1-.729-.565c-.848-.974-1.489-2.082-2.073-3.226-.768-1.503-1.377-3.071-1.921-4.666-.041-.121-.078-.24-.16-.34-.012-.338-.172-.637-.253-.957-.265-1.043-.561-2.078-.844-3.115l-.009-.071c-.032-.476-.087-.947-.258-1.397-.142-.873-.281-1.746-.428-2.618-.182-1.079-.272-2.166-.327-3.258a53.468 53.468 0 0 1 .069-6.758c.122-1.617.49-3.198.817-4.786.25-1.211.701-2.35 1.067-3.519.186-.596.539-1.138.78-1.719.475-1.147 1.066-2.231 1.657-3.32.388-.715.84-1.387 1.256-2.081.469-.783 1.035-1.509 1.565-2.255.391-.552.821-1.073 1.244-1.595.422-.521.864-1.034 1.314-1.536a44.458 44.458 0 0 1 2.295-2.398c.449-.431.914-.86 1.389-1.271a64.955 64.955 0 0 1 1.758-1.482c.809-.653 1.631-1.298 2.5-1.866.641-.419 1.28-.845 1.933-1.248a38.604 38.604 0 0 1 2.657-1.513 52.387 52.387 0 0 1 6.362-2.768c1.121-.392 2.221-.853 3.377-1.164.677-.182 1.371-.393 2.017-.711.217-.106.488-.101.734-.147.627-.09 1.22-.309 1.822-.494.016.009.028.005.037-.01a1.29 1.29 0 0 0 .489-.139l.13-.018c.331-.066.661-.137.979-.258l.129-.016a.58.58 0 0 0 .348-.055l.135-.013c.501-.037.974-.215 1.468-.291.043-.007.076-.076.114-.116.141.002.283.051.421-.013a.381.381 0 0 0 .273-.055h.002a12.26 12.26 0 0 0 1.52-.275l.068-.007 1.178-.13a.061.061 0 0 0 .065-.005c.362.008.717-.036 1.069-.121.015.012.028.011.038-.006a6.653 6.653 0 0 0 1.274-.132l.02.013.021-.011 2.239-.139 1.969-.015 2.417.135.068.004c.344.129.733.045 1.076.207-.043.132-.173.131-.233.211-1.092-.058-2.15.196-3.209.385-1.809.323-3.621.625-5.398 1.115-1.183.326-2.369.642-3.55.978-1.305.372-2.571.853-3.839 1.319a47.114 47.114 0 0 0-3.267 1.363c-.994.453-1.964.949-2.924 1.461-.835.445-1.654.927-2.459 1.435-.737.465-1.458.953-2.17 1.451-.955.668-1.856 1.409-2.736 2.177a33.635 33.635 0 0 0-2.321 2.24c-.403.427-.79.88-1.184 1.32-.418.467-.832.944-1.226 1.425-.433.529-.874 1.059-1.297 1.599a69.575 69.575 0 0 0-1.553 2.055 36.199 36.199 0 0 0-1.547 2.312c-.467.763-.924 1.535-1.316 2.333-.653 1.327-1.232 2.694-1.42 4.184-.069.548-.113 1.104.11 1.634.087.206.157.449.427.49.277.043.433-.159.539-.357.39-.726.857-1.41 1.158-2.184.078-.201.194-.389.304-.576.499-.849.914-1.743 1.399-2.601.422-.745.844-1.493 1.287-2.225a38.808 38.808 0 0 1 1.928-2.879c1.258-1.71 2.635-3.323 4.224-4.737a24.118 24.118 0 0 1 2.62-2.044 24.623 24.623 0 0 1 2.829-1.622c.778-.384 1.527-.836 2.357-1.116.346-.117.669-.301 1.003-.454 1.034-.472 2.106-.859 3.182-1.21 2.131-.696 4.308-1.218 6.564-1.313.126-.005.252-.001.423-.001-.115.171-.279.206-.414.242-.674.179-1.249.581-1.896.814-.823.297-1.563.762-2.357 1.119-.823.369-1.598.846-2.386 1.291-.858.484-1.73.951-2.553 1.49-.689.451-1.391.883-2.055 1.374-.626.463-1.263.912-1.875 1.393a43.52 43.52 0 0 0-1.864 1.568c-.447.393-.862.82-1.283 1.233a16.804 16.804 0 0 0-1.423 1.617c-.506.643-.948 1.323-1.41 1.992-.32.463-.541.98-.838 1.456-.469.749-.832 1.561-1.168 2.37-.928 2.235-1.623 4.539-1.715 6.983-.023.622.018 1.243.197 1.845.079.265.181.596.47.624.279.027.426-.296.528-.527.325-.733.64-1.473.915-2.227.454-1.24.98-2.45 1.527-3.649.442-.968.928-1.919 1.453-2.85 1.18-2.09 2.564-4.017 4.363-5.617a26.947 26.947 0 0 1 2.415-1.928c1.303-.917 2.649-1.771 4.095-2.458 1.239-.588 2.512-1.075 3.85-1.371.693-.153 1.408-.156 2.126-.126-.757.321-1.476.705-2.206 1.065-.923.455-1.811.974-2.665 1.56-.776.53-1.549 1.057-2.253 1.681z"></path></g><!----></svg>